HIERARCHY
ROOT Hips
{
	OFFSET 173.408295 91.952423 -518.280273
	CHANNELS 6 Xposition Yposition Zposition Zrotation Yrotation Xrotation 
	JOINT LeftUpLeg
	{
		OFFSET 0.103459 1.857827 10.548504
		CHANNELS 3 Zrotation Yrotation Xrotation
		JOINT LeftLeg
		{
			OFFSET 43.500008 0.000000 0.000004
			CHANNELS 3 Zrotation Yrotation Xrotation
			JOINT LeftFoot
			{
				OFFSET 42.372192 0.000011 0.000000
				CHANNELS 3 Zrotation Yrotation Xrotation
				JOINT LeftToe
				{
					OFFSET 17.299973 -0.000013 -0.000010
					CHANNELS 3 Zrotation Yrotation Xrotation
					End Site
					{
						OFFSET 0.000000 0.000000 0.000000
					}
				}
			}
		}
	}
	JOINT RightUpLeg
	{
		OFFSET 0.103454 1.857830 -10.548500
		CHANNELS 3 Zrotation Yrotation Xrotation
		JOINT RightLeg
		{
			OFFSET 43.500038 -0.000038 0.000004
			CHANNELS 3 Zrotation Yrotation Xrotation
			JOINT RightFoot
			{
				OFFSET 42.372253 0.000019 0.000024
				CHANNELS 3 Zrotation Yrotation Xrotation
				JOINT RightToe
				{
					OFFSET 17.299988 -0.000007 0.000004
					CHANNELS 3 Zrotation Yrotation Xrotation
					End Site
					{
						OFFSET 0.000000 0.000000 0.000000
					}
				}
			}
		}
	}
	JOINT Spine
	{
		OFFSET 6.901963 -2.603744 0.000004
		CHANNELS 3 Zrotation Yrotation Xrotation
		JOINT Spine1
		{
			OFFSET 12.588104 0.000008 -0.000010
			CHANNELS 3 Zrotation Yrotation Xrotation
			JOINT Spine2
			{
				OFFSET 12.343202 -0.000005 0.000010
				CHANNELS 3 Zrotation Yrotation Xrotation
				JOINT Neck
				{
					OFFSET 25.832897 0.000000 0.000001
					CHANNELS 3 Zrotation Yrotation Xrotation
					JOINT Head
					{
						OFFSET 11.766611 -0.000006 -0.000000
						CHANNELS 3 Zrotation Yrotation Xrotation
						End Site
						{
							OFFSET 0.000000 0.000000 0.000000
						}
					}
				}
				JOINT LeftShoulder
				{
					OFFSET 19.745899 -1.480366 6.000108
					CHANNELS 3 Zrotation Yrotation Xrotation
					JOINT LeftArm
					{
						OFFSET 11.284111 -0.000018 -0.000015
						CHANNELS 3 Zrotation Yrotation Xrotation
						JOINT LeftForeArm
						{
							OFFSET 33.000050 -0.000005 0.000028
							CHANNELS 3 Zrotation Yrotation Xrotation
							JOINT LeftHand
							{
								OFFSET 25.200012 0.000000 0.000002
								CHANNELS 3 Zrotation Yrotation Xrotation
								End Site
								{
									OFFSET 0.000000 0.000000 0.000000
								}
							}
						}
					}
				}
				JOINT RightShoulder
				{
					OFFSET 19.746111 -1.480335 -6.000074
					CHANNELS 3 Zrotation Yrotation Xrotation
					JOINT RightArm
					{
						OFFSET 11.284151 0.000036 0.000001
						CHANNELS 3 Zrotation Yrotation Xrotation
						JOINT RightForeArm
						{
							OFFSET 33.000092 -0.000035 0.000022
							CHANNELS 3 Zrotation Yrotation Xrotation
							JOINT RightHand
							{
								OFFSET 25.199768 0.000178 0.000417
								CHANNELS 3 Zrotation Yrotation Xrotation
								End Site
								{
									OFFSET 0.000000 0.000000 0.000000
								}
							}
						}
					}
				}
			}
		}
	}
}
MOTION
Frames: 10
Frame Time: 0.033333
-17.114582 -19.871332 7.727661 75.585045 -52.347534 -132.037979 135.736816 88.323448 64.743263 133.948547 45.734787 -49.953632 -115.910202 -19.515001 -82.387161 21.454561 0.003092 0.000000 81.247887 -59.672703 -30.703062 146.162476 12.339933 11.373851 128.768021 -55.207561 152.537415 21.456141 -0.003104 -0.000018 11.305823 -3.871010 1.959563 7.884901 -4.615971 5.666111 13.777106 -7.299050 11.602792 -170.498917 -62.074867 102.485634 152.819580 14.949428 -78.387642 -0.896359 -64.626434 -133.421875 -21.728922 -38.722469 -40.395290 128.032059 19.715363 -57.900581 -14.843166 -23.397408 133.514038 140.428757 55.079807 -34.156773 99.331924 -26.222799 -126.469376 -23.457438 -21.085697 -81.300087 -39.521675 4.004653 -108.615021 
-16.908676 -20.822126 7.272645 74.593140 -50.783630 -130.498627 156.652100 87.515404 85.655365 134.494247 44.317368 -48.453030 -113.106468 -18.640026 -82.795097 21.454582 0.003092 0.000000 96.463303 -60.065697 -52.058529 143.019470 12.097323 11.630724 127.643715 -56.158115 153.846756 21.456133 -0.003105 -0.000018 10.663909 -3.975090 0.703476 8.086117 -5.000016 3.145151 14.286488 -7.656140 9.080799 -164.043320 -62.148975 91.469803 151.250031 16.492517 -78.390198 -2.005272 -66.425743 -134.368942 -28.520584 -37.308067 -32.228329 130.185516 20.882153 -57.919716 -14.748053 -23.368200 134.321884 139.386810 54.591415 -34.685120 107.289177 -24.593025 -127.095253 -28.044283 -11.686116 -83.271370 -39.922031 4.768335 -109.487381 
-16.764179 -21.652203 6.963212 74.428810 -49.604637 -130.290771 150.814529 86.041054 79.528496 135.523880 43.059624 -46.971676 -109.758354 -18.279957 -80.074203 21.454597 0.003092 -0.000000 107.177216 -60.169338 -68.611031 141.241440 11.845417 12.871365 128.969070 -59.715000 152.704315 21.456121 -0.003105 -0.000019 10.160865 -3.955036 -0.570103 8.758583 -5.376553 0.500224 15.053001 -8.088488 6.457540 -157.651749 -62.083717 80.997269 149.736923 17.941662 -78.381058 -3.533661 -68.178291 -134.720917 -34.307739 -35.342724 -24.973122 131.990646 22.027859 -57.709427 -14.930013 -23.553886 135.399933 138.312897 54.116985 -35.079586 114.864571 -22.921886 -127.901764 -32.527187 -2.883408 -84.747246 -40.783394 5.666001 -109.876991 
-16.646049 -22.198660 6.789317 74.526382 -49.130848 -130.475754 142.716187 83.966156 70.794792 136.198685 41.918327 -46.092278 -107.242310 -18.653536 -75.314049 21.454617 0.003093 0.000000 115.934776 -60.927540 -82.355484 140.456207 11.294624 14.360151 136.229706 -64.980904 146.248398 21.456114 -0.003105 -0.000019 9.555022 -4.026237 -1.879038 9.846632 -5.613713 -2.263950 16.020456 -8.279610 3.793608 -151.478683 -61.532303 71.286415 148.165421 19.512762 -78.212791 -5.561747 -69.777008 -134.359772 -38.863026 -33.086838 -18.897835 133.759613 23.338923 -57.359627 -15.548624 -23.840786 136.801804 137.366699 53.485870 -35.249786 121.777664 -21.163906 -128.779556 -36.318104 5.172834 -85.455688 -42.164448 6.910168 -109.662178 
-16.479195 -22.750174 6.706373 74.489037 -49.643009 -131.130371 135.182449 81.248055 62.376801 136.736084 41.140709 -45.344410 -105.732819 -19.450939 -68.938797 21.454638 0.003093 0.000000 120.036522 -63.915833 -90.081223 139.359634 10.750264 16.885349 147.134018 -68.761002 137.020950 21.456116 -0.003105 -0.000019 8.854645 -3.979392 -3.130880 11.177768 -5.491160 -4.800857 17.111399 -8.061005 1.509559 -146.264542 -60.443115 63.559498 146.338791 21.611156 -77.827255 -8.332469 -71.404007 -133.226425 -42.208466 -30.780632 -14.175082 135.405945 24.712566 -56.811520 -16.386459 -24.285475 138.418839 136.107651 52.839523 -35.551022 128.087585 -19.291906 -129.547470 -39.620884 12.106873 -85.577065 -43.334969 7.749722 -109.330200 
-16.247129 -23.313147 6.608790 73.617989 -51.204426 -130.999374 131.638458 78.826988 58.542950 137.159393 40.130466 -44.493271 -105.610588 -19.639374 -62.727032 21.454664 0.003094 -0.000001 125.121559 -68.849190 -97.374283 136.346039 10.953924 17.245029 151.126419 -69.935135 134.149887 21.456102 -0.003105 -0.000018 8.036885 -3.574746 -4.196133 12.498653 -4.979023 -7.286464 18.141157 -7.552987 -1.032390 -141.640472 -58.873508 56.990932 144.298920 24.230303 -77.294128 -10.929747 -72.551788 -132.031509 -44.556789 -28.531832 -10.085830 137.199432 26.257246 -56.450836 -17.128445 -24.576138 140.072235 134.845932 52.083179 -35.755951 133.751373 -17.361311 -130.106415 -42.180767 17.602858 -85.036461 -44.194233 8.275193 -109.088394 
-16.001978 -23.711054 6.563825 71.293739 -52.970928 -128.956741 129.476349 77.374687 56.960720 136.942810 38.499088 -43.916306 -105.675835 -19.218300 -57.432590 21.454700 0.003094 -0.000001 132.015045 -74.957458 -105.704445 133.133087 11.362484 16.568346 155.009857 -71.428192 130.352982 21.456102 -0.003105 -0.000018 6.705330 -3.187582 -5.498906 13.483541 -3.954495 -9.767780 19.115015 -6.291823 -3.359250 -138.754669 -57.322823 52.544285 142.013657 27.387823 -76.722702 -13.200146 -73.893639 -131.247406 -46.033039 -26.755646 -6.832842 138.875717 27.465187 -56.111790 -17.329514 -24.377182 141.544632 133.518143 51.343403 -35.923298 138.947800 -15.474187 -130.392654 -43.853104 21.784815 -83.465118 -44.621395 8.689821 -109.267723 
-15.802941 -24.099203 6.642468 67.595047 -54.824730 -125.254654 125.989388 76.646835 54.720787 136.406097 36.233791 -43.312603 -105.517685 -17.203768 -53.562931 21.454733 0.003095 -0.000001 144.204834 -82.104340 -118.115135 129.541885 12.031738 14.964667 157.756714 -72.692970 127.146271 21.456074 -0.003105 -0.000018 5.371357 -2.929046 -6.874219 13.955886 -2.581841 -12.113288 19.779654 -4.510761 -5.441678 -136.764542 -56.136745 49.432636 139.581772 30.826281 -76.332848 -15.211483 -74.929375 -130.519501 -47.179005 -25.237017 -3.920193 140.596924 28.565422 -55.462086 -17.243904 -24.166731 142.769897 131.802170 50.532970 -36.313889 143.718613 -13.549714 -130.278351 -44.702354 24.631565 -81.096069 -44.641174 8.857460 -109.934807 
-15.715083 -24.608841 6.724478 63.315002 -57.010612 -120.209015 123.473213 76.092949 53.988541 135.759521 33.836208 -42.438984 -105.792511 -12.881747 -51.434555 21.454754 0.003095 -0.000001 -160.503906 -85.803848 -173.025436 124.468399 13.382905 10.675412 152.555008 -73.348373 131.728394 21.456062 -0.003105 -0.000018 4.151257 -2.644705 -8.132716 14.020341 -0.961622 -14.142718 20.185646 -2.428670 -7.218108 -134.425644 -55.171429 46.125309 137.158264 34.170696 -76.237198 -17.039083 -75.731667 -129.816956 -48.108009 -24.008732 -1.237718 142.333130 29.401815 -54.591648 -17.310558 -24.005816 143.815460 129.721725 49.506104 -36.852180 148.088531 -11.673213 -129.676041 -44.641033 26.278774 -77.961212 -44.495338 8.943987 -111.071632 
-15.673953 -24.988894 6.635652 58.609673 -59.609886 -114.027794 120.690163 75.034348 52.903793 135.073746 31.566336 -41.376225 -106.949150 -7.483216 -50.880650 21.454767 0.003095 -0.000001 -121.001793 -82.882904 146.675537 121.217903 14.049775 8.294200 156.828796 -74.629280 127.800972 21.456062 -0.003105 -0.000018 3.309670 -2.131055 -9.155927 13.818008 0.806103 -15.674985 20.072010 -0.314693 -8.612753 -132.235046 -54.558292 43.264488 134.759033 37.358143 -76.416893 -18.733814 -76.282516 -129.212967 -49.109955 -23.086220 1.473026 143.902390 29.763422 -53.586136 -17.474916 -23.819830 144.545090 126.949020 48.208302 -37.741203 152.370880 -9.829867 -128.665695 -43.853157 26.855444 -74.442871 -44.005627 8.800858 -112.323067 
